<?xml version="1.0" encoding="UTF-8"?>
<!DOCTYPE svg PUBLIC "-//W3C//DTD SVG 1.1//EN" "http://www.w3.org/Graphics/SVG/1.1/DTD/svg11.dtd">
<!-- Creator: CorelDRAW X8 -->
<svg xmlns="http://www.w3.org/2000/svg" xml:space="preserve" width="1080px" height="482px" version="1.1" style="shape-rendering:geometricPrecision; text-rendering:geometricPrecision; image-rendering:optimizeQuality; fill-rule:evenodd; clip-rule:evenodd"
viewBox="0 0 1080 482"
 xmlns:xlink="http://www.w3.org/1999/xlink">
 <defs>
  <style type="text/css">
   <![CDATA[
    .str0 {stroke:#373435;stroke-width:2.3622}
    .fil0 {fill:none}
    .fil1 {fill:#222222}
    .fil2 {fill:#512DA8}
    .fil6 {fill:#5C6BC0}
    .fil4 {fill:#5E35B1}
    .fil7 {fill:#6E49B9}
    .fil3 {fill:#7E57C2}
    .fil5 {fill:white}
    .fil9 {fill:#FEFEFE;fill-rule:nonzero}
    .fil8 {fill:#512DA8;fill-rule:nonzero}
   ]]>
  </style>
 </defs>
 <g id="Layer_x0020_1">
  <metadata id="CorelCorpID_0Corel-Layer"/>
  <rect class="fil0" width="1080" height="482"/>
  <rect class="fil1 str0" x="15" y="15" width="1050" height="452" rx="42" ry="27"/>
  <g id="_657939856">
   <g>
    <rect class="fil2" x="221" y="139" width="16.1356" height="41.9538"/>
    <path class="fil2" d="M369 214l0 0c9,0 15,8 15,17l0 91c0,9 -6,17 -15,17l0 0c-8,0 -15,-8 -15,-17l0 -91c0,-9 7,-17 15,-17z"/>
    <path class="fil3" d="M217 172l25 0c66,0 121,55 121,121l0 66 -1 0c-31,22 -73,29 -122,29l-21 0c-51,0 -92,-6 -123,-28l0 -67c0,-66 55,-121 121,-121l0 0z"/>
    <circle class="fil4" cx="288" cy="293" r="46"/>
    <circle class="fil5" cx="288" cy="293" r="32"/>
    <circle class="fil6" cx="288" cy="293" r="17"/>
    <circle class="fil4" cx="169" cy="293" r="46"/>
    <circle class="fil5" cx="169" cy="293" r="32"/>
    <circle class="fil6" cx="169" cy="293" r="17"/>
    <circle class="fil3" cx="229" cy="122" r="28"/>
    <path class="fil7" d="M229 94c6,0 12,2 17,6 -11,0 -25,3 -30,16 -7,20 4,31 8,34 -13,-2 -23,-14 -23,-28 0,-15 12,-28 28,-28z"/>
    <path class="fil2" d="M88 214l0 0c9,0 15,8 15,17l0 91c0,9 -6,17 -15,17l0 0c-8,0 -15,-8 -15,-17l0 -91c0,-9 7,-17 15,-17z"/>
    <path class="fil7" d="M217 172l1 0c-29,9 -66,27 -84,64 -25,48 -20,108 -15,137 -8,-4 -16,-8 -23,-13l0 -67c0,-66 55,-121 121,-121l0 0z"/>
   </g>
   <g>
    <path class="fil8" d="M417 273c0,0 -1,0 -1,-1 -1,0 -1,-1 -1,-1l0 -54c0,-1 0,-1 1,-2 0,0 1,0 1,0l25 0c4,0 9,1 12,2 4,1 7,4 9,7 1,2 2,6 2,11 0,4 -1,8 -2,10 -2,3 -5,5 -9,7 -3,1 -8,2 -12,2l-8 0 0 17c0,0 -1,1 -1,1 0,1 -1,1 -2,1l-14 0 0 0zm16 -33l8 0c2,0 3,0 4,-1 1,-1 2,-3 2,-5 0,-1 0,-3 -1,-4 -1,-1 -3,-2 -5,-2l-8 0 0 12z"/>
    <path id="_1" class="fil8" d="M475 273c-1,0 -1,0 -2,-1 0,0 0,-1 0,-1l0 -54c0,-1 0,-1 0,-2 1,0 1,0 2,0l23 0c8,0 14,2 18,5 4,3 7,8 7,14 0,4 -1,7 -3,10 -2,3 -4,5 -7,7l11 19c0,1 0,1 0,1 0,1 0,1 0,1 -1,1 -1,1 -2,1l-14 0c-1,0 -2,0 -2,-1 -1,0 -1,-1 -1,-1l-9 -17 -6 0 0 17c0,0 0,1 0,1 -1,1 -1,1 -2,1l-13 0 0 0zm15 -33l8 0c2,0 4,-1 5,-2 1,-1 1,-2 1,-4 0,-1 0,-3 -1,-4 -1,-1 -3,-2 -5,-2l-8 0 0 12z"/>
    <path id="_2" class="fil8" d="M556 274c-5,0 -10,-1 -14,-3 -4,-1 -7,-4 -9,-7 -2,-4 -3,-8 -4,-13 0,-2 0,-4 0,-7 0,-2 0,-5 0,-7 1,-5 2,-9 4,-13 2,-3 5,-6 9,-7 4,-2 9,-3 14,-3 5,0 10,1 14,3 4,1 7,4 9,7 2,4 4,8 4,13 0,2 0,5 0,7 0,3 0,5 0,7 0,5 -2,9 -4,13 -2,3 -5,6 -9,7 -4,2 -9,3 -14,3zm0 -14c2,0 4,-1 6,-2 1,-2 2,-4 2,-7 0,-3 0,-5 0,-7 0,-2 0,-5 0,-7 0,-2 0,-4 -1,-5 -1,-1 -2,-2 -3,-3 -1,-1 -2,-1 -4,-1 -1,0 -3,0 -4,1 -1,1 -2,2 -3,3 -1,1 -1,3 -1,5 0,2 0,5 0,7 0,2 0,4 0,7 0,3 1,5 2,7 2,1 4,2 6,2z"/>
    <path id="_3" class="fil8" d="M613 274c-3,0 -7,-1 -10,-1 -3,-1 -5,-3 -8,-4 -2,-2 -4,-4 -5,-6 -2,-3 -2,-6 -2,-9 0,0 0,-1 0,-1 1,-1 1,-1 1,-1l15 0c0,0 1,0 2,1 0,0 0,1 1,2 0,1 1,2 1,3 1,0 1,1 2,1 1,1 2,1 3,1 4,0 4,-1 5,-2 2,-2 2,-4 2,-7l0 -22 -26 0c0,0 -1,0 -1,0 -1,-1 -1,-1 -1,-2l0 -10c0,-1 0,-1 1,-2 0,0 1,0 1,0l42 0c1,0 2,0 2,0 0,1 1,1 1,2l0 35c0,5 -1,9 -4,12 -2,3 -5,6 -9,7 -3,2 -8,3 -13,3l0 0z"/>
    <path id="_4" class="fil8" d="M651 273c-1,0 -1,0 -2,-1 0,0 -1,-1 -1,-1l0 -54c0,-1 1,-1 1,-2 1,0 1,0 2,0l40 0c1,0 1,0 2,0 0,1 1,1 1,2l0 10c0,0 -1,1 -1,1 -1,1 -1,1 -2,1l-25 0 0 8 24 0c0,0 1,0 1,1 1,0 1,1 1,1l0 9c0,1 0,1 -1,2 0,0 -1,0 -1,0l-24 0 0 9 26 0c1,0 1,0 2,1 0,0 0,0 0,1l0 10c0,0 0,1 0,1 -1,1 -1,1 -2,1l-41 0 0 0z"/>
    <path id="_5" class="fil8" d="M727 274c-5,0 -9,-1 -13,-3 -4,-1 -7,-4 -10,-7 -2,-3 -3,-8 -3,-13 0,-2 0,-4 0,-7 0,-3 0,-5 0,-8 0,-5 1,-9 3,-12 3,-3 6,-6 10,-8 4,-1 8,-2 13,-2 4,0 8,0 11,1 3,1 6,2 8,4 3,2 5,4 6,7 2,2 2,5 2,9 0,0 0,0 0,1 -1,0 -1,0 -1,0l-15 0c0,0 -1,0 -1,0 -1,0 -1,-1 -1,-2 -1,-2 -2,-4 -3,-5 -2,-1 -4,-1 -6,-1 -2,0 -4,1 -5,2 -2,1 -3,4 -3,7 0,4 0,9 0,14 0,3 1,5 3,7 1,1 3,2 5,2 2,0 4,-1 6,-2 1,-1 2,-2 3,-4 0,-1 0,-2 1,-2 0,0 1,-1 1,-1l15 0c0,0 0,1 1,1 0,0 0,1 0,1 0,4 0,7 -2,9 -1,3 -3,5 -6,7 -2,1 -5,3 -8,4 -3,0 -7,1 -11,1z"/>
    <path id="_6" class="fil8" d="M777 273c-1,0 -1,0 -1,-1 -1,0 -1,-1 -1,-1l0 -41 -14 0c-1,0 -2,0 -2,0 0,-1 -1,-1 -1,-2l0 -11c0,-1 1,-1 1,-2 0,0 1,0 2,0l46 0c1,0 1,0 2,0 0,1 0,1 0,2l0 11c0,1 0,1 0,2 -1,0 -1,0 -2,0l-14 0 0 41c0,0 0,1 -1,1 0,1 -1,1 -1,1l-14 0 0 0z"/>
    <path id="_7" class="fil8" d="M818 273c0,0 -1,0 -1,-1 -1,0 -1,-1 -1,-1l0 -54c0,-1 0,-1 1,-2 0,0 1,0 1,0l23 0c6,0 10,1 14,2 4,2 7,5 9,8 3,3 4,8 4,13 0,2 0,4 0,6 0,2 0,4 0,6 0,5 -1,10 -3,13 -3,3 -6,6 -9,8 -4,1 -9,2 -14,2l-24 0 0 0zm16 -14l7 0c2,0 4,0 5,-1 1,-1 2,-2 3,-3 1,-1 1,-3 1,-5 0,-2 0,-3 0,-4 0,-2 0,-3 0,-4 0,-1 0,-3 0,-4 0,-3 -1,-6 -3,-7 -1,-1 -3,-2 -6,-2l-7 0 0 30z"/>
    <path id="_8" class="fil8" d="M879 273c-1,0 -1,0 -2,-1 0,0 0,-1 0,-1l0 -54c0,-1 0,-1 0,-2 1,0 1,0 2,0l14 0c1,0 1,0 2,0 0,1 0,1 0,2l0 54c0,0 0,1 0,1 -1,1 -1,1 -2,1l-14 0z"/>
    <path id="_9" class="fil8" d="M908 273c-1,0 -1,0 -2,-1 0,0 0,-1 0,-1l0 -54c0,-1 0,-1 0,-2 1,0 1,0 2,0l13 0c1,0 2,0 2,0 0,1 1,1 1,2l0 41 24 0c0,0 1,0 1,1 1,0 1,1 1,1l0 11c0,0 0,1 -1,1 0,1 -1,1 -1,1l-40 0 0 0z"/>
    <path id="_10" class="fil8" d="M979 274c-5,0 -10,-1 -14,-3 -4,-1 -7,-3 -9,-6 -2,-3 -3,-5 -3,-8 0,-1 0,-1 1,-2 0,0 0,0 1,0l13 0c1,0 1,0 2,0 0,0 1,1 1,1 1,1 1,1 2,2 1,0 2,1 3,1 1,1 2,1 3,1 3,0 5,-1 6,-1 2,-1 2,-2 2,-3 0,-1 0,-2 -1,-3 -1,0 -2,-1 -4,-1 -1,-1 -4,-1 -7,-2 -4,-1 -8,-2 -11,-3 -3,-1 -5,-3 -7,-6 -2,-2 -2,-5 -2,-9 0,-3 1,-6 3,-9 2,-3 4,-5 8,-7 4,-1 8,-2 13,-2 4,0 7,0 10,2 3,1 6,2 8,4 2,1 4,3 5,5 1,2 2,4 2,6 0,0 -1,1 -1,1 0,0 -1,0 -1,0l-14 0c-1,0 -1,0 -2,0 0,0 0,0 -1,-1 0,-1 -1,-1 -2,-2 -1,-1 -3,-1 -4,-1 -2,0 -4,0 -5,1 -1,1 -1,2 -1,3 0,1 0,1 1,2 0,1 2,1 3,2 2,0 4,1 7,1 5,1 9,2 12,3 4,2 6,4 7,6 2,2 4,5 4,9 0,4 -2,7 -5,10 -1,3 -4,5 -9,7 -4,1 -9,2 -14,2l0 0z"/>
   </g>
   <path class="fil9" d="M560 340c-5,0 -9,-1 -12,-2 -4,-2 -6,-4 -8,-7 -2,-3 -3,-7 -3,-12l0 -30c0,-1 0,-1 1,-1 0,-1 1,-1 1,-1l10 0c0,0 1,0 1,1 1,0 1,0 1,1l0 30c0,4 0,6 2,8 2,1 4,2 7,2 2,0 5,-1 6,-2 2,-2 2,-4 2,-8l0 -30c0,-1 1,-1 1,-1 0,-1 1,-1 1,-1l10 0c0,0 1,0 1,1 1,0 1,0 1,1l0 30c0,5 -1,9 -3,12 -2,3 -4,5 -8,7 -3,1 -7,2 -11,2z"/>
   <path id="1" class="fil9" d="M611 340c-5,0 -9,-1 -12,-2 -3,-2 -6,-3 -8,-6 -1,-2 -2,-4 -2,-7 0,0 0,-1 0,-1 0,0 1,-1 1,-1l10 0c0,0 1,1 1,1 1,0 1,0 1,1 1,1 1,1 2,2 1,1 2,1 3,2 1,0 2,0 4,0 3,0 5,0 7,-1 1,-1 2,-2 2,-4 0,-1 -1,-2 -1,-2 -1,-1 -2,-2 -4,-2 -2,-1 -4,-2 -7,-2 -4,-1 -7,-2 -10,-3 -3,-1 -5,-3 -6,-5 -1,-2 -2,-5 -2,-8 0,-3 1,-6 3,-8 1,-2 4,-4 7,-6 3,-1 6,-2 11,-2 3,0 6,1 9,2 2,1 5,2 6,3 2,2 3,3 4,5 1,2 2,3 2,5 0,0 0,1 -1,1 0,0 0,0 -1,0l-10 0c0,0 -1,0 -1,0 0,0 -1,0 -1,-1 0,-1 -1,-2 -2,-3 -2,0 -3,-1 -5,-1 -3,0 -4,1 -5,1 -2,1 -2,2 -2,4 0,1 0,2 1,2 0,1 2,2 3,2 2,1 4,1 7,2 4,1 8,2 10,3 3,2 5,3 7,5 1,2 2,5 2,8 0,3 -1,6 -3,8 -2,3 -5,5 -8,6 -4,1 -7,2 -12,2z"/>
   <path id="2" class="fil9" d="M643 339c-1,0 -1,0 -1,0 -1,-1 -1,-1 -1,-2l0 -48c0,-1 0,-1 1,-1 0,-1 0,-1 1,-1l35 0c0,0 1,0 1,1 0,0 1,0 1,1l0 7c0,1 -1,1 -1,1 0,1 -1,1 -1,1l-24 0 0 10 22 0c1,0 1,0 1,0 1,1 1,1 1,2l0 6c0,1 0,1 -1,2 0,0 0,0 -1,0l-22 0 0 11 24 0c1,0 1,0 2,0 0,0 0,1 0,1l0 7c0,1 0,1 0,2 -1,0 -1,0 -2,0l-35 0z"/>
   <path id="3" class="fil9" d="M690 339c0,0 -1,0 -1,0 0,-1 0,-1 0,-2l0 -48c0,-1 0,-1 0,-1 0,-1 1,-1 1,-1l21 0c6,0 11,2 15,5 4,3 5,7 5,12 0,4 0,7 -2,9 -2,2 -4,4 -7,6l10 18c1,0 1,0 1,1 0,0 -1,0 -1,1 0,0 -1,0 -1,0l-10 0c-1,0 -2,0 -2,0 0,-1 -1,-1 -1,-2l-8 -16 -8 0 0 16c0,1 0,1 -1,2 0,0 0,0 -1,0l-10 0zm12 -29l9 0c2,0 4,0 5,-1 1,-2 2,-3 2,-5 0,-2 -1,-4 -2,-5 -1,-1 -3,-1 -5,-1l-9 0 0 12z"/>
   <path id="4" class="fil9" d="M742 339c-1,0 -1,0 -1,0 -1,-1 -1,-1 -1,-2l0 -48c0,-1 0,-1 1,-1 0,-1 0,-1 1,-1l23 0c4,0 7,1 10,2 3,1 5,3 6,5 1,2 2,5 2,8 0,2 0,3 -1,5 -1,1 -1,2 -2,3 -1,1 -2,2 -3,2 2,1 3,2 5,4 1,2 2,5 2,7 0,4 -1,7 -2,9 -2,2 -4,4 -6,5 -3,2 -7,2 -11,2l-23 0zm11 -9l11 0c2,0 4,-1 5,-2 1,-2 1,-3 1,-5 0,-1 0,-3 -1,-4 -2,-1 -3,-2 -5,-2l-11 0 0 13zm0 -22l10 0c2,0 4,-1 5,-2 1,-1 1,-2 1,-4 0,-1 0,-3 -1,-4 -1,-1 -3,-1 -5,-1l-10 0 0 11z"/>
   <path id="5" class="fil9" d="M814 340c-5,0 -9,-1 -12,-2 -4,-2 -6,-4 -8,-7 -2,-3 -3,-7 -3,-11 0,-2 0,-5 0,-7 0,-2 0,-4 0,-6 0,-5 1,-8 3,-11 2,-3 5,-6 8,-7 3,-2 7,-3 12,-3 4,0 8,1 12,3 3,1 6,4 7,7 2,3 3,6 4,11 0,2 0,4 0,6 0,2 0,5 0,7 -1,4 -2,8 -3,11 -2,3 -5,5 -8,7 -4,1 -8,2 -12,2zm0 -11c2,0 4,-1 6,-2 2,-2 3,-4 3,-8 0,-2 0,-4 0,-6 0,-2 0,-4 0,-6 0,-2 -1,-4 -2,-6 0,-1 -1,-2 -3,-3 -1,-1 -3,-1 -4,-1 -2,0 -4,0 -5,1 -1,1 -2,2 -3,3 -1,2 -1,4 -1,6 0,2 0,4 0,6 0,2 0,4 0,6 0,4 1,6 2,8 2,1 4,2 7,2z"/>
   <path id="6" class="fil9" d="M858 339c-1,0 -1,0 -1,0 -1,-1 -1,-1 -1,-2l0 -38 -13 0c-1,0 -1,0 -2,-1 0,0 0,-1 0,-1l0 -8c0,-1 0,-1 0,-1 1,-1 1,-1 2,-1l40 0c0,0 1,0 1,1 1,0 1,0 1,1l0 8c0,0 0,1 -1,1 0,1 -1,1 -1,1l-13 0 0 38c0,1 -1,1 -1,2 0,0 -1,0 -1,0l-10 0z"/>
  </g>
 </g>
</svg>
