<?xml version="1.0" encoding="UTF-8"?>
<!DOCTYPE svg PUBLIC "-//W3C//DTD SVG 1.1//EN" "http://www.w3.org/Graphics/SVG/1.1/DTD/svg11.dtd">
<!-- Creator: CorelDRAW X7 -->
<svg xmlns="http://www.w3.org/2000/svg" xml:space="preserve" width="1080px" height="482px" version="1.1" style="shape-rendering:geometricPrecision; text-rendering:geometricPrecision; image-rendering:optimizeQuality; fill-rule:evenodd; clip-rule:evenodd"
viewBox="0 0 1080 482"
 xmlns:xlink="http://www.w3.org/1999/xlink">
 <defs>
  <style type="text/css">
   <![CDATA[
    .fil0 {fill:#222222}
    .fil1 {fill:#512DA8}
    .fil5 {fill:#5C6BC0}
    .fil7 {fill:#5C6BC0}
    .fil3 {fill:#5E35B1}
    .fil6 {fill:#5E35B1}
    .fil9 {fill:#6E49B9}
    .fil8 {fill:#6E49B9}
    .fil2 {fill:#7E57C2}
    .fil4 {fill:white}
    .fil10 {fill:#512DA8;fill-rule:nonzero}
    .fil11 {fill:white;fill-rule:nonzero}
   ]]>
  </style>
 </defs>
 <g id="Layer_x0020_1">
  <metadata id="CorelCorpID_0Corel-Layer"/>
  <rect class="fil0" width="1080" height="482" rx="2" ry="1"/>
  <g id="_649315112">
   <g>
    <rect class="fil1" x="221" y="139" width="16.1357" height="41.9538"/>
    <rect class="fil1" x="354" y="214" width="29.8509" height="125.053" rx="15" ry="17"/>
    <path class="fil2" d="M217 172l25 0c66,0 121,55 121,121l0 66 -1 0c-31,22 -73,29 -122,29l-21 0c-51,0 -92,-6 -123,-28l0 -67c0,-66 55,-121 121,-121z"/>
    <circle class="fil3" cx="288" cy="293" r="46"/>
    <circle class="fil4" cx="288" cy="293" r="32"/>
    <circle class="fil5" cx="288" cy="293" r="17"/>
    <circle class="fil6" cx="169" cy="293" r="46"/>
    <circle class="fil4" cx="169" cy="293" r="32"/>
    <circle class="fil7" cx="169" cy="293" r="17"/>
    <circle class="fil2" cx="229" cy="122" r="28"/>
    <path class="fil8" d="M229 94c6,0 12,2 17,6 -11,0 -25,3 -30,16 -7,20 4,31 8,34 -13,-2 -23,-14 -23,-28 0,-15 12,-28 28,-28z"/>
    <rect class="fil1" x="73" y="214" width="29.8509" height="125.053" rx="15" ry="17"/>
    <path class="fil9" d="M217 172l1 0c-29,9 -66,27 -84,64 -25,48 -20,108 -15,137 -8,-4 -16,-8 -23,-13l0 -67c0,-66 55,-121 121,-121z"/>
   </g>
   <g>
    <path class="fil10" d="M417 273c0,0 -1,0 -1,-1 -1,0 -1,-1 -1,-1l0 -54c0,-1 0,-1 1,-2 0,0 1,0 1,0l25 0c4,0 9,1 12,2 4,1 7,4 9,7 1,2 2,6 2,11 0,4 -1,8 -2,10 -2,3 -5,5 -9,7 -3,1 -8,2 -12,2l-8 0 0 17c0,0 -1,1 -1,1 0,1 -1,1 -2,1l-14 0zm16 -33l8 0c2,0 3,0 4,-1 1,-1 2,-3 2,-5 0,-1 0,-3 -1,-4 -1,-1 -3,-2 -5,-2l-8 0 0 12z"/>
    <path id="1" class="fil10" d="M475 273c-1,0 -1,0 -2,-1 0,0 0,-1 0,-1l0 -54c0,-1 0,-1 0,-2 1,0 1,0 2,0l23 0c8,0 14,2 18,5 4,3 7,8 7,14 0,4 -1,7 -3,10 -2,3 -4,5 -7,7l11 19c0,1 0,1 0,1 0,1 0,1 0,1 -1,1 -1,1 -2,1l-14 0c-1,0 -2,0 -2,-1 -1,0 -1,-1 -1,-1l-9 -17 -6 0 0 17c0,0 0,1 0,1 -1,1 -1,1 -2,1l-13 0zm15 -33l8 0c2,0 4,-1 5,-2 1,-1 1,-2 1,-4 0,-1 0,-3 -1,-4 -1,-1 -3,-2 -5,-2l-8 0 0 12z"/>
    <path id="2" class="fil10" d="M556 274c-5,0 -10,-1 -14,-3 -4,-1 -7,-4 -9,-7 -2,-4 -3,-8 -4,-13 0,-2 0,-4 0,-7 0,-2 0,-5 0,-7 1,-5 2,-9 4,-13 2,-3 5,-6 9,-7 4,-2 9,-3 14,-3 5,0 10,1 14,3 4,1 7,4 9,7 2,4 4,8 4,13 0,2 0,5 0,7 0,3 0,5 0,7 0,5 -2,9 -4,13 -2,3 -5,6 -9,7 -4,2 -9,3 -14,3zm0 -14c2,0 4,-1 6,-2 1,-2 2,-4 2,-7 0,-3 0,-5 0,-7 0,-2 0,-5 0,-7 0,-2 0,-4 -1,-5 -1,-1 -2,-2 -3,-3 -1,-1 -2,-1 -4,-1 -1,0 -3,0 -4,1 -1,1 -2,2 -3,3 -1,1 -1,3 -1,5 0,2 0,5 0,7 0,2 0,4 0,7 0,3 1,5 2,7 2,1 4,2 6,2z"/>
    <path id="3" class="fil10" d="M613 274c-3,0 -7,-1 -10,-1 -3,-1 -5,-3 -8,-4 -2,-2 -4,-4 -5,-6 -2,-3 -2,-6 -2,-9 0,0 0,-1 0,-1 1,-1 1,-1 1,-1l15 0c0,0 1,0 2,1 0,0 0,1 1,2 0,1 1,2 1,3 1,0 1,1 2,1 1,1 2,1 3,1 3,0 4,-1 5,-2 2,-2 2,-4 2,-7l0 -22 -26 0c0,0 -1,0 -1,0 -1,-1 -1,-1 -1,-2l0 -10c0,-1 0,-1 1,-2 0,0 1,0 1,0l42 0c1,0 2,0 2,0 0,1 1,1 1,2l0 35c0,5 -1,9 -4,12 -2,3 -5,6 -9,7 -4,2 -8,3 -13,3z"/>
    <path id="4" class="fil10" d="M651 273c-1,0 -1,0 -2,-1 0,0 -1,-1 -1,-1l0 -54c0,-1 1,-1 1,-2 1,0 1,0 2,0l40 0c1,0 1,0 2,0 0,1 1,1 1,2l0 10c0,0 -1,1 -1,1 -1,1 -1,1 -2,1l-25 0 0 8 24 0c0,0 1,0 1,1 1,0 1,1 1,1l0 9c0,1 0,1 -1,2 0,0 -1,0 -1,0l-24 0 0 9 26 0c1,0 1,0 2,1 0,0 0,0 0,1l0 10c0,0 0,1 0,1 -1,1 -1,1 -2,1l-41 0z"/>
    <path id="5" class="fil10" d="M727 274c-5,0 -9,-1 -13,-3 -4,-1 -7,-4 -10,-7 -2,-3 -3,-8 -3,-13 0,-2 0,-4 0,-7 0,-3 0,-5 0,-8 0,-5 1,-9 3,-12 3,-3 6,-6 10,-8 4,-1 8,-2 13,-2 4,0 8,0 11,1 3,1 6,2 8,4 3,2 5,4 6,7 2,2 2,5 2,9 0,0 0,0 0,1 -1,0 -1,0 -1,0l-15 0c0,0 -1,0 -1,0 -1,0 -1,-1 -1,-2 -1,-2 -2,-4 -3,-5 -2,-1 -4,-1 -6,-1 -2,0 -4,1 -5,2 -2,1 -3,4 -3,7 0,4 0,9 0,14 0,3 1,5 3,7 1,1 3,2 5,2 2,0 4,-1 6,-2 1,-1 2,-2 3,-4 0,-1 0,-2 1,-2 0,0 1,-1 1,-1l15 0c0,0 0,1 1,1 0,0 0,1 0,1 0,4 0,7 -2,9 -1,3 -3,5 -6,7 -2,1 -5,3 -8,4 -3,0 -7,1 -11,1z"/>
    <path id="6" class="fil10" d="M777 273c-1,0 -1,0 -1,-1 -1,0 -1,-1 -1,-1l0 -41 -14 0c-1,0 -2,0 -2,0 0,-1 -1,-1 -1,-2l0 -11c0,-1 1,-1 1,-2 0,0 1,0 2,0l46 0c1,0 1,0 2,0 0,1 0,1 0,2l0 11c0,1 0,1 0,2 -1,0 -1,0 -2,0l-14 0 0 41c0,0 0,1 -1,1 0,1 -1,1 -1,1l-14 0z"/>
    <path id="7" class="fil10" d="M818 273c0,0 -1,0 -1,-1 -1,0 -1,-1 -1,-1l0 -54c0,-1 0,-1 1,-2 0,0 1,0 1,0l23 0c6,0 10,1 14,2 4,2 7,5 9,8 3,3 4,8 4,13 0,2 0,4 0,6 0,2 0,4 0,6 0,5 -1,10 -3,13 -3,3 -6,6 -9,8 -4,1 -9,2 -14,2l-24 0zm16 -14l7 0c2,0 4,0 5,-1 1,-1 2,-2 3,-3 1,-1 1,-3 1,-5 0,-2 0,-3 0,-4 0,-2 0,-3 0,-4 0,-1 0,-3 0,-4 0,-3 -1,-6 -3,-7 -1,-1 -3,-2 -6,-2l-7 0 0 30z"/>
    <path id="8" class="fil10" d="M879 273c-1,0 -1,0 -2,-1 0,0 0,-1 0,-1l0 -54c0,-1 0,-1 0,-2 1,0 1,0 2,0l14 0c1,0 1,0 2,0 0,1 0,1 0,2l0 54c0,0 0,1 0,1 -1,1 -1,1 -2,1l-14 0z"/>
    <path id="9" class="fil10" d="M908 273c-1,0 -1,0 -2,-1 0,0 0,-1 0,-1l0 -54c0,-1 0,-1 0,-2 1,0 1,0 2,0l13 0c1,0 2,0 2,0 0,1 1,1 1,2l0 41 24 0c0,0 1,0 1,1 1,0 1,1 1,1l0 11c0,0 0,1 -1,1 0,1 -1,1 -1,1l-40 0z"/>
    <path id="10" class="fil10" d="M979 274c-5,0 -10,-1 -14,-3 -4,-1 -7,-3 -9,-6 -2,-3 -3,-5 -3,-8 0,-1 0,-1 1,-2 0,0 0,0 1,0l13 0c1,0 1,0 2,0 0,0 1,1 1,1 1,1 1,1 2,2 1,0 2,1 3,1 1,1 2,1 3,1 3,0 5,-1 6,-1 2,-1 2,-2 2,-3 0,-1 0,-2 -1,-3 -1,0 -2,-1 -4,-1 -1,-1 -4,-1 -7,-2 -4,-1 -8,-2 -11,-3 -3,-1 -5,-3 -7,-6 -2,-2 -2,-5 -2,-9 0,-3 1,-6 3,-9 2,-3 4,-5 8,-7 4,-1 8,-2 13,-2 4,0 7,0 10,2 3,1 6,2 8,4 2,1 4,3 5,5 1,2 2,4 2,6 0,0 -1,1 -1,1 0,0 -1,0 -1,0l-14 0c-1,0 -1,0 -2,0 0,0 0,0 -1,-1 0,-1 -1,-1 -2,-2 -1,-1 -3,-1 -4,-1 -2,0 -4,0 -5,1 -1,1 -1,2 -1,3 0,1 0,1 1,2 0,1 2,1 3,2 2,0 4,1 7,1 5,1 9,2 12,3 4,2 6,4 7,6 2,2 3,5 3,9 0,4 -1,7 -4,10 -2,3 -5,5 -9,7 -4,1 -9,2 -14,2z"/>
    <path class="fil11" d="M424 339c0,0 -1,0 -1,-1 -1,0 -1,-1 -1,-1l-8 -46c0,0 0,0 0,0 0,0 0,0 0,0 0,-1 0,-1 0,-1 1,-1 1,-1 1,-1l9 0c1,0 2,1 2,2l5 28 5 -17c0,0 0,-1 1,-1 0,0 1,-1 1,-1l6 0c0,0 1,1 1,1 1,0 1,1 1,1l5 17 5 -28c0,-1 1,-2 2,-2l9 0c0,0 1,0 1,1 0,0 0,0 0,1 0,0 0,0 0,0 0,0 0,0 0,0l-8 46c0,0 0,1 0,1 -1,1 -1,1 -2,1l-7 0c-1,0 -1,0 -2,-1 0,0 -1,0 -1,-1l-7 -20 -7 20c0,1 -1,1 -1,1 0,1 -1,1 -2,1l-7 0z"/>
    <path id="1" class="fil11" d="M481 339c0,0 -1,0 -1,0 0,-1 -1,-1 -1,-2l0 -46c0,0 1,-1 1,-1 0,-1 1,-1 1,-1l9 0c1,0 1,0 2,1 0,0 0,1 0,1l0 17 18 0 0 -17c0,0 0,-1 0,-1 1,-1 1,-1 2,-1l9 0c0,0 1,0 1,1 0,0 1,1 1,1l0 46c0,1 -1,1 -1,2 0,0 -1,0 -1,0l-9 0c-1,0 -1,0 -2,0 0,-1 0,-1 0,-2l0 -17 -18 0 0 17c0,1 0,1 0,2 -1,0 -1,0 -2,0l-9 0z"/>
    <path id="2" class="fil11" d="M533 339c0,0 0,0 -1,0 0,-1 0,-1 0,-1 0,-1 0,-1 0,-1l17 -46c0,0 0,-1 1,-1 0,-1 1,-1 2,-1l10 0c1,0 2,0 2,1 0,0 1,1 1,1l17 46c0,0 0,0 0,1 0,0 0,0 -1,1 0,0 0,0 -1,0l-9 0c0,0 -1,0 -1,0 -1,-1 -1,-1 -1,-1l-3 -8 -19 0 -2 8c-1,0 -1,0 -1,1 0,0 -1,0 -2,0l-9 0zm17 -19l13 0 -6 -19 -7 19z"/>
    <path id="3" class="fil11" d="M599 339c-1,0 -1,0 -2,0 0,-1 0,-1 0,-2l0 -37 -13 0c0,0 -1,0 -1,0 0,0 0,-1 0,-1l0 -8c0,0 0,-1 0,-1 0,-1 1,-1 1,-1l39 0c0,0 1,0 1,1 0,0 0,1 0,1l0 8c0,0 0,1 0,1 0,0 -1,0 -1,0l-13 0 0 37c0,1 0,1 -1,2 0,0 0,0 -1,0l-9 0z"/>
    <path id="4" class="fil11" d="M653 340c-5,0 -9,-1 -12,-2 -3,-2 -5,-3 -7,-5 -1,-3 -2,-5 -2,-7 0,-1 0,-1 0,-1 0,-1 1,-1 1,-1l9 0c1,0 1,0 2,0 0,1 0,1 1,1 0,1 1,2 1,2 1,1 2,2 3,2 1,0 3,1 4,1 3,0 5,-1 6,-2 2,-1 2,-2 2,-3 0,-1 0,-2 -1,-3 0,0 -2,-1 -3,-2 -2,0 -4,-1 -7,-1 -4,-1 -7,-2 -9,-3 -3,-1 -5,-3 -6,-5 -1,-2 -2,-4 -2,-7 0,-3 1,-6 2,-8 2,-2 4,-4 7,-6 3,-1 7,-1 11,-1 3,0 6,0 8,1 3,1 5,2 7,3 1,2 3,3 4,5 0,1 1,3 1,4 0,1 0,1 0,1 -1,1 -1,1 -2,1l-9 0c0,0 -1,0 -1,0 -1,-1 -1,-1 -1,-1 -1,-1 -1,-2 -3,-3 -1,-1 -2,-1 -4,-1 -2,0 -4,0 -5,1 -1,1 -2,2 -2,3 0,1 0,2 1,3 1,1 2,1 3,2 2,0 4,1 6,1 5,1 8,2 11,3 3,2 4,3 6,5 1,2 2,4 2,7 0,3 -1,6 -3,9 -2,2 -5,4 -8,5 -3,1 -7,2 -11,2z"/>
    <path id="5" class="fil11" d="M682 339c0,0 -1,0 -1,0 0,-1 -1,-1 -1,-1 0,-1 0,-1 0,-1l17 -46c0,0 1,-1 1,-1 1,-1 1,-1 2,-1l11 0c0,0 1,0 1,1 1,0 1,1 1,1l17 46c0,0 0,0 0,1 0,0 0,0 0,1 -1,0 -1,0 -1,0l-9 0c-1,0 -1,0 -2,0 0,-1 0,-1 0,-1l-3 -8 -19 0 -3 8c0,0 0,0 -1,1 0,0 -1,0 -1,0l-9 0zm17 -19l13 0 -7 -19 -6 19z"/>
    <path id="6" class="fil11" d="M741 339c0,0 -1,0 -1,0 0,-1 0,-1 0,-2l0 -46c0,0 0,-1 0,-1 0,-1 1,-1 1,-1l20 0c4,0 8,1 11,2 2,1 5,3 6,6 2,2 3,5 3,9 0,3 -1,6 -3,9 -1,2 -4,4 -6,5 -3,1 -7,2 -11,2l-8 0 0 15c0,1 0,1 -1,2 0,0 -1,0 -1,0l-10 0zm12 -27l8 0c2,0 4,-1 5,-2 1,-1 2,-2 2,-4 0,-2 -1,-4 -2,-5 -1,-1 -3,-2 -5,-2l-8 0 0 13z"/>
    <path id="7" class="fil11" d="M793 339c0,0 -1,0 -1,0 0,-1 -1,-1 -1,-2l0 -46c0,0 1,-1 1,-1 0,-1 1,-1 1,-1l20 0c4,0 8,1 11,2 2,1 5,3 6,6 2,2 3,5 3,9 0,3 -1,6 -3,9 -1,2 -4,4 -6,5 -3,1 -7,2 -11,2l-8 0 0 15c0,1 0,1 -1,2 0,0 -1,0 -1,0l-10 0zm12 -27l8 0c2,0 4,-1 5,-2 1,-1 2,-2 2,-4 0,-2 -1,-4 -2,-5 -1,-1 -3,-2 -5,-2l-8 0 0 13z"/>
    <path id="8" class="fil11" d="M863 339c-1,0 -1,0 -2,0 0,-1 0,-1 0,-2l0 -46c0,0 0,-1 0,-1 1,-1 1,-1 2,-1l21 0c4,0 8,1 10,2 3,1 5,3 6,5 2,2 2,4 2,7 0,2 0,4 -1,5 0,1 -1,2 -2,3 -1,1 -2,2 -3,2 2,1 4,2 5,4 1,2 2,4 2,7 0,3 -1,6 -2,8 -1,2 -3,4 -6,5 -3,2 -6,2 -10,2l-22 0zm11 -9l10 0c2,0 3,-1 4,-2 1,-1 2,-2 2,-4 0,-2 -1,-3 -2,-4 -1,-1 -2,-2 -4,-2l-10 0 0 12zm0 -21l9 0c2,0 3,0 4,-1 1,-1 2,-3 2,-4 0,-2 -1,-3 -2,-4 -1,-1 -2,-1 -4,-1l-9 0 0 10z"/>
    <path id="9" class="fil11" d="M935 340c-4,0 -8,-1 -11,-2 -3,-2 -6,-4 -8,-7 -2,-3 -3,-6 -3,-11 0,-2 0,-4 0,-6 0,-2 0,-4 0,-6 0,-4 1,-8 3,-11 2,-3 5,-5 8,-6 3,-2 7,-2 11,-2 5,0 8,0 12,2 3,1 5,3 7,6 2,3 3,7 3,11 0,2 0,4 0,6 0,2 0,4 0,6 0,5 -1,8 -3,11 -2,3 -4,5 -7,7 -4,1 -7,2 -12,2zm0 -10c3,0 5,-1 6,-3 2,-1 3,-4 3,-7 0,-2 0,-4 0,-6 0,-2 0,-4 0,-6 0,-2 -1,-4 -1,-5 -1,-1 -2,-3 -3,-3 -2,-1 -3,-1 -5,-1 -1,0 -3,0 -4,1 -1,0 -2,2 -3,3 -1,1 -1,3 -1,5 -1,2 -1,4 -1,6 0,2 0,4 1,6 0,3 1,6 2,7 2,2 4,3 6,3z"/>
    <path id="10" class="fil11" d="M981 339c0,0 -1,0 -1,0 0,-1 0,-1 0,-2l0 -37 -13 0c-1,0 -1,0 -1,0 -1,0 -1,-1 -1,-1l0 -8c0,0 0,-1 1,-1 0,-1 0,-1 1,-1l38 0c1,0 1,0 1,1 1,0 1,1 1,1l0 8c0,0 0,1 -1,1 0,0 0,0 -1,0l-13 0 0 37c0,1 0,1 0,2 0,0 -1,0 -1,0l-10 0z"/>
   </g>
  </g>
 </g>
</svg>
