<?xml version="1.0" encoding="UTF-8"?>
<!DOCTYPE svg PUBLIC "-//W3C//DTD SVG 1.1//EN" "http://www.w3.org/Graphics/SVG/1.1/DTD/svg11.dtd">
<!-- Creator: CorelDRAW X8 -->
<svg xmlns="http://www.w3.org/2000/svg" xml:space="preserve" width="1080px" height="482px" version="1.1" style="shape-rendering:geometricPrecision; text-rendering:geometricPrecision; image-rendering:optimizeQuality; fill-rule:evenodd; clip-rule:evenodd"
viewBox="0 0 1080 482"
 xmlns:xlink="http://www.w3.org/1999/xlink">
 <defs>
  <style type="text/css">
   <![CDATA[
    .str0 {stroke:#373435;stroke-width:2.3622}
    .fil0 {fill:none}
    .fil1 {fill:#222222}
    .fil2 {fill:#512DA8}
    .fil6 {fill:#5C6BC0}
    .fil4 {fill:#5E35B1}
    .fil7 {fill:#6E49B9}
    .fil3 {fill:#7E57C2}
    .fil5 {fill:white}
    .fil8 {fill:#512DA8;fill-rule:nonzero}
    .fil9 {fill:white;fill-rule:nonzero}
   ]]>
  </style>
 </defs>
 <g id="Layer_x0020_1">
  <metadata id="CorelCorpID_0Corel-Layer"/>
  <rect class="fil0" width="1080" height="482"/>
  <rect class="fil1 str0" x="15" y="15" width="1050" height="452" rx="42" ry="27"/>
  <g id="_649315112">
   <g>
    <rect class="fil2" x="241" y="145" width="15.1313" height="39.3426"/>
    <path class="fil2" d="M380 216l0 0c7,0 14,7 14,16l0 85c0,9 -7,16 -14,16l0 0c-8,0 -14,-7 -14,-16l0 -85c0,-9 6,-16 14,-16z"/>
    <path class="fil3" d="M237 176l24 0c61,0 113,52 113,114l0 62 -1 0c-29,20 -68,27 -114,27l-20 0c-48,0 -86,-6 -115,-26l0 -63c0,-62 51,-114 113,-114l0 0z"/>
    <circle class="fil4" cx="304" cy="290" r="43"/>
    <circle class="fil5" cx="304" cy="290" r="30"/>
    <circle class="fil6" cx="304" cy="290" r="16"/>
    <circle class="fil4" cx="192" cy="290" r="43"/>
    <circle class="fil5" cx="192" cy="290" r="30"/>
    <circle class="fil6" cx="192" cy="290" r="16"/>
    <circle class="fil3" cx="248" cy="129" r="26"/>
    <path class="fil7" d="M248 103c6,0 12,2 16,6 -10,0 -23,3 -28,15 -6,19 4,29 8,32 -13,-2 -22,-13 -22,-27 0,-14 11,-26 26,-26z"/>
    <path class="fil2" d="M116 216l0 0c8,0 14,7 14,16l0 85c0,9 -6,16 -14,16l0 0c-8,0 -14,-7 -14,-16l0 -85c0,-9 6,-16 14,-16z"/>
    <path class="fil7" d="M237 176l1 0c-27,9 -62,26 -79,60 -23,45 -18,102 -14,129 -7,-4 -15,-8 -21,-12l0 -63c0,-62 51,-114 113,-114l0 0z"/>
   </g>
   <g>
    <path class="fil8" d="M425 271c0,0 -1,0 -1,-1 -1,0 -1,-1 -1,-1l0 -51c0,0 0,0 1,-1 0,0 1,0 1,0l23 0c4,0 9,1 11,1 4,1 7,4 9,7 1,2 2,6 2,10 0,4 -1,8 -2,10 -2,3 -5,4 -9,6 -2,1 -7,2 -11,2l-7 0 0 16c0,0 -1,1 -1,1 0,1 -1,1 -2,1l-13 0 0 0zm15 -31l7 0c2,0 3,0 4,-1 1,-1 2,-3 2,-5 0,-1 0,-2 -1,-3 -1,-1 -3,-2 -5,-2l-7 0 0 11z"/>
    <path id="_1" class="fil8" d="M479 271c-1,0 -1,0 -2,-1 0,0 0,-1 0,-1l0 -51c0,0 0,0 0,-1 1,0 1,0 2,0l22 0c7,0 13,1 16,4 4,3 7,8 7,13 0,4 -1,7 -3,10 -2,3 -4,5 -6,6l10 18c0,1 0,1 0,1 0,1 0,1 0,1 -1,1 -1,1 -2,1l-13 0c-1,0 -2,0 -2,-1 -1,0 -1,-1 -1,-1l-8 -16 -6 0 0 16c0,0 0,1 0,1 -1,1 -1,1 -2,1l-12 0 0 0zm14 -31l8 0c1,0 3,-1 4,-2 1,-1 1,-2 1,-4 0,-1 0,-2 -1,-3 -1,-1 -3,-2 -4,-2l-8 0 0 11z"/>
    <path id="_2" class="fil8" d="M555 272c-5,0 -9,-1 -13,-3 -4,-1 -7,-4 -9,-6 -1,-4 -2,-8 -3,-13 0,-1 0,-3 0,-6 0,-2 0,-5 0,-7 1,-4 2,-8 3,-12 2,-3 5,-6 9,-7 4,-1 8,-2 13,-2 5,0 9,1 13,2 4,1 7,4 9,7 1,4 3,8 3,12 0,2 0,5 0,7 0,3 0,5 0,6 0,5 -2,9 -3,13 -2,2 -5,5 -9,6 -4,2 -8,3 -13,3zm0 -13c2,0 4,-1 6,-2 1,-2 2,-4 2,-7 0,-2 0,-4 0,-6 0,-2 0,-5 0,-7 0,-2 0,-4 -1,-4 -1,-1 -2,-2 -3,-3 -1,-1 -2,-1 -4,-1 -1,0 -3,0 -4,1 -1,1 -2,2 -3,3 0,0 0,2 0,4 0,2 0,5 0,7 0,2 0,4 0,6 0,3 0,5 1,7 2,1 4,2 6,2z"/>
    <path id="_3" class="fil8" d="M608 272c-2,0 -6,-1 -9,-1 -3,-1 -5,-3 -7,-4 -2,-2 -4,-3 -5,-5 -2,-3 -2,-6 -2,-9 0,0 0,-1 0,-1 1,-1 1,-1 1,-1l14 0c0,0 1,0 2,1 0,0 0,1 1,2 0,1 1,2 1,3 1,0 1,1 2,1 1,1 2,1 2,1 3,0 4,-1 5,-2 2,-2 2,-4 2,-7l0 -20 -24 0c0,0 -1,0 -1,0 -1,-1 -1,-1 -1,-2l0 -10c0,0 0,0 1,-1 0,0 1,0 1,0l39 0c1,0 2,0 2,0 0,1 1,1 1,1l0 33c0,5 -1,9 -4,12 -2,2 -5,5 -8,6 -4,2 -8,3 -13,3l0 0z"/>
    <path id="_4" class="fil8" d="M644 271c-1,0 -1,0 -2,-1 0,0 -1,-1 -1,-1l0 -51c0,0 1,0 1,-1 1,0 1,0 2,0l38 0c1,0 1,0 1,0 0,1 1,1 1,1l0 10c0,0 -1,1 -1,1 0,1 0,1 -1,1l-24 0 0 7 23 0c0,0 1,0 1,1 1,0 1,1 1,1l0 9c0,1 0,1 -1,1 0,0 -1,0 -1,0l-23 0 0 9 25 0c0,0 0,0 1,1 0,0 0,0 0,1l0 9c0,0 0,1 0,1 -1,1 -1,1 -1,1l-39 0 0 0z"/>
    <path id="_5" class="fil8" d="M715 272c-4,0 -8,-1 -12,-3 -4,-1 -6,-4 -9,-6 -2,-3 -3,-8 -3,-13 0,-1 0,-3 0,-6 0,-3 0,-5 0,-8 0,-4 1,-8 3,-11 3,-3 5,-6 9,-7 4,-1 8,-2 12,-2 4,0 8,0 11,1 2,1 5,1 7,3 3,2 5,4 6,7 2,2 2,5 2,8 0,0 0,0 0,1 -1,0 -1,0 -1,0l-14 0c0,0 -1,0 -1,0 -1,0 -1,-1 -1,-2 -1,-1 -2,-3 -3,-4 -2,-1 -4,-1 -6,-1 -2,0 -3,1 -4,2 -2,1 -3,3 -3,6 0,4 0,9 0,13 0,3 1,5 3,7 1,1 2,2 4,2 2,0 4,-1 6,-2 1,-1 2,-2 3,-4 0,-1 0,-2 1,-2 0,0 1,-1 1,-1l14 0c0,0 0,1 1,1 0,0 0,1 0,1 0,4 0,7 -2,9 -1,3 -3,4 -6,6 -2,1 -5,3 -7,4 -3,0 -7,1 -11,1z"/>
    <path id="_6" class="fil8" d="M762 271c-1,0 -1,0 -1,-1 -1,0 -1,-1 -1,-1l0 -38 -13 0c-1,0 -2,0 -2,0 0,-1 -1,-1 -1,-2l0 -11c0,0 1,0 1,-1 0,0 1,0 2,0l43 0c1,0 1,0 2,0 0,1 0,1 0,1l0 11c0,1 0,1 0,2 -1,0 -1,0 -2,0l-13 0 0 38c0,0 0,1 -1,1 0,1 -1,1 -1,1l-13 0 0 0z"/>
    <path id="_7" class="fil8" d="M801 271c0,0 -1,0 -1,-1 -1,0 -1,-1 -1,-1l0 -51c0,0 0,0 1,-1 0,0 1,0 1,0l21 0c6,0 10,1 13,1 4,2 7,5 9,8 3,3 4,7 4,12 0,2 0,4 0,6 0,2 0,4 0,5 0,5 -1,10 -3,13 -3,2 -6,5 -9,7 -3,1 -8,2 -13,2l-22 0 0 0zm15 -13l6 0c2,0 4,0 5,-1 1,-1 2,-2 3,-3 1,-1 1,-3 1,-5 0,-1 0,-2 0,-3 0,-2 0,-3 0,-4 0,-1 0,-3 0,-4 0,-3 -1,-5 -3,-6 -1,-1 -3,-2 -6,-2l-6 0 0 28z"/>
    <path id="_8" class="fil8" d="M858 271c-1,0 -1,0 -2,-1 0,0 0,-1 0,-1l0 -51c0,0 0,0 0,-1 1,0 1,0 2,0l13 0c1,0 1,0 2,0 0,1 0,1 0,1l0 51c0,0 0,1 0,1 -1,1 -1,1 -2,1l-13 0z"/>
    <path id="_9" class="fil8" d="M885 271c-1,0 -1,0 -2,-1 0,0 0,-1 0,-1l0 -51c0,0 0,0 0,-1 1,0 1,0 2,0l12 0c1,0 2,0 2,0 0,1 1,1 1,1l0 39 23 0c0,0 1,0 1,1 0,0 0,1 0,1l0 10c0,0 0,1 0,1 0,1 -1,1 -1,1l-38 0 0 0z"/>
    <path id="_10" class="fil8" d="M952 272c-5,0 -10,-1 -13,-3 -4,-1 -7,-3 -9,-5 -2,-3 -3,-5 -3,-8 0,-1 0,-1 1,-2 0,0 0,0 1,0l12 0c1,0 1,0 2,0 0,0 1,1 1,1 1,1 1,1 2,2 1,0 2,1 3,1 1,1 2,1 3,1 2,0 4,-1 5,-1 2,-1 2,-2 2,-3 0,-1 0,-2 -1,-3 -1,0 -2,-1 -4,-1 0,-1 -3,-1 -6,-2 -4,0 -8,-1 -10,-2 -3,-1 -5,-3 -7,-6 -2,-2 -2,-5 -2,-8 0,-3 1,-6 3,-9 2,-3 4,-5 7,-6 4,-1 8,-2 13,-2 3,0 6,0 9,2 3,0 6,1 8,3 1,1 3,3 4,5 1,2 2,4 2,6 0,0 -1,1 -1,1 0,0 -1,0 -1,0l-13 0c-1,0 -1,0 -2,0 0,0 0,0 -1,-1 0,-1 -1,-1 -2,-2 -1,-1 -2,-1 -3,-1 -2,0 -4,0 -5,1 -1,1 -1,2 -1,3 0,0 0,0 1,1 0,1 2,1 3,2 2,0 4,1 6,1 5,1 9,2 12,3 3,2 5,4 6,6 2,2 3,4 3,8 0,4 -1,7 -4,10 -2,2 -4,4 -8,6 -4,1 -9,2 -13,2l0 0z"/>
    <path class="fil9" d="M431 333c0,0 -1,0 -1,-1 -1,0 -1,-1 -1,-1l-7 -43c0,0 0,0 0,0 0,0 0,0 0,0 0,-1 0,-1 0,-1 1,-1 1,-1 1,-1l8 0c1,0 2,1 2,2l5 26 4 -16c0,0 0,-1 1,-1 0,0 1,-1 1,-1l6 0c0,0 1,1 1,1 1,0 1,1 1,1l5 16 4 -26c0,-1 1,-2 2,-2l9 0c0,0 0,0 0,1 0,0 0,0 0,1 0,0 0,0 0,0 0,0 0,0 0,0l-7 43c0,0 0,1 0,1 -1,1 -1,1 -2,1l-6 0c-1,0 -1,0 -2,-1 0,0 -1,0 -1,-1l-7 -19 -6 19c0,1 -1,1 -1,1 0,1 -1,1 -2,1l-7 0 0 0z"/>
    <path id="_1_0" class="fil9" d="M485 333c0,0 -1,0 -1,0 0,-1 -1,-1 -1,-2l0 -43c0,0 1,-1 1,-1 0,-1 1,-1 1,-1l8 0c1,0 1,0 2,1 0,0 0,1 0,1l0 16 17 0 0 -16c0,0 0,-1 0,-1 1,-1 1,-1 2,-1l8 0c0,0 1,0 1,1 0,0 1,1 1,1l0 43c0,1 -1,1 -1,2 0,0 -1,0 -1,0l-8 0c-1,0 -1,0 -2,0 0,-1 0,-1 0,-2l0 -16 -17 0 0 16c0,1 0,1 0,2 -1,0 -1,0 -2,0l-8 0z"/>
    <path id="_2_1" class="fil9" d="M533 333c0,0 0,0 -1,0 0,-1 0,-1 0,-1 0,-1 0,-1 0,-1l16 -43c0,0 0,-1 1,-1 0,-1 1,-1 2,-1l10 0c1,0 2,0 2,1 0,0 0,1 0,1l16 43c0,0 0,0 0,1 0,0 0,0 -1,1 0,0 0,0 0,0l-9 0c0,0 -1,0 -1,0 -1,-1 -1,-1 -1,-1l-3 -8 -17 0 -2 8c-1,0 -1,0 -1,1 0,0 -1,0 -2,0l-9 0 0 0zm16 -18l13 0 -6 -18 -7 18z"/>
    <path id="_3_2" class="fil9" d="M595 333c-1,0 -1,0 -2,0 0,-1 0,-1 0,-2l0 -35 -12 0c0,0 -1,0 -1,0 0,0 0,-1 0,-1l0 -7c0,0 0,-1 0,-1 0,-1 1,-1 1,-1l37 0c0,0 1,0 1,1 0,0 0,1 0,1l0 7c0,0 0,1 0,1 0,0 -1,0 -1,0l-12 0 0 35c0,1 0,1 -1,2 0,0 0,0 -1,0l-9 0 0 0z"/>
    <path id="_4_3" class="fil9" d="M646 334c-5,0 -8,-1 -11,-2 -3,-2 -5,-3 -7,-5 -1,-3 -2,-4 -2,-6 0,-1 0,-1 0,-1 0,-1 1,-1 1,-1l9 0c1,0 1,0 2,0 0,1 0,1 0,1 0,1 1,2 1,2 1,1 2,2 3,2 1,0 3,0 4,0 3,0 5,0 6,-1 1,-1 1,-2 1,-3 0,-1 0,-2 0,-3 0,0 -2,-1 -3,-2 -2,0 -4,-1 -7,-1 -4,-1 -6,-2 -8,-3 -3,-1 -5,-2 -6,-4 -1,-2 -2,-4 -2,-7 0,-3 1,-6 2,-7 2,-2 4,-4 7,-6 2,-1 6,-1 10,-1 3,0 6,0 7,1 3,1 5,2 7,3 1,2 3,3 4,4 0,1 1,3 1,4 0,1 0,1 0,1 -1,1 -1,1 -2,1l-9 0c0,0 -1,0 -1,0 0,-1 0,-1 0,-1 -1,-1 -1,-2 -3,-3 -1,-1 -2,-1 -4,-1 -2,0 -4,0 -5,1 -1,1 -2,2 -2,3 0,1 0,2 1,3 1,1 2,1 3,2 2,0 4,1 6,1 4,1 7,2 10,3 3,1 4,2 6,4 1,2 2,4 2,7 0,3 -1,5 -3,8 -2,2 -5,4 -8,5 -3,1 -6,2 -10,2l0 0z"/>
    <path id="_5_4" class="fil9" d="M673 333c0,0 -1,0 -1,0 0,-1 -1,-1 -1,-1 0,-1 0,-1 0,-1l16 -43c0,0 1,-1 1,-1 1,-1 1,-1 2,-1l10 0c0,0 1,0 1,1 1,0 1,1 1,1l16 43c0,0 0,0 0,1 0,0 0,0 0,1 -1,0 -1,0 -1,0l-8 0c-1,0 -1,0 -2,0 0,-1 0,-1 0,-1l-3 -8 -18 0 -3 8c0,0 0,0 0,1 0,0 -1,0 -1,0l-9 0 0 0zm16 -18l12 0 -6 -18 -6 18z"/>
    <path id="_6_5" class="fil9" d="M728 333c0,0 0,0 0,0 0,-1 0,-1 0,-2l0 -43c0,0 0,-1 0,-1 0,-1 0,-1 0,-1l19 0c4,0 8,1 11,2 1,1 4,3 5,6 2,1 3,4 3,8 0,3 -1,6 -3,8 -1,2 -4,4 -5,5 -3,1 -7,2 -11,2l-7 0 0 14c0,1 0,1 -1,2 0,0 -1,0 -1,0l-10 0 0 0zm12 -25l7 0c2,0 4,-1 5,-2 1,-1 2,-2 2,-4 0,-2 -1,-4 -2,-5 -1,-1 -3,-2 -5,-2l-7 0 0 13z"/>
    <path id="_7_6" class="fil9" d="M777 333c0,0 -1,0 -1,0 0,-1 -1,-1 -1,-2l0 -43c0,0 1,-1 1,-1 0,-1 1,-1 1,-1l19 0c4,0 8,1 10,2 2,1 5,3 6,6 2,1 3,4 3,8 0,3 -1,6 -3,8 -1,2 -4,4 -6,5 -2,1 -6,2 -10,2l-7 0 0 14c0,1 0,1 -1,2 0,0 -1,0 -1,0l-10 0 0 0zm12 -25l7 0c2,0 4,-1 5,-2 1,-1 2,-2 2,-4 0,-2 -1,-4 -2,-5 -1,-1 -3,-2 -5,-2l-7 0 0 13z"/>
    <path id="_8_7" class="fil9" d="M843 333c-1,0 -1,0 -2,0 0,-1 0,-1 0,-2l0 -43c0,0 0,-1 0,-1 1,-1 1,-1 2,-1l20 0c3,0 7,1 9,2 3,1 5,3 6,5 1,1 1,3 1,6 0,2 0,4 0,5 0,1 -1,2 -2,3 -1,1 -2,2 -3,2 2,0 4,1 5,3 0,2 1,4 1,7 0,3 -1,5 -1,7 -1,2 -3,4 -6,5 -3,2 -6,2 -9,2l-21 0 0 0zm10 -9l10 0c1,0 2,0 3,-1 1,-1 2,-2 2,-4 0,-2 -1,-3 -2,-4 -1,-1 -2,-2 -3,-2l-10 0 0 11zm0 -19l9 0c2,0 2,0 3,-1 1,-1 2,-3 2,-4 0,-2 -1,-3 -2,-4 -1,-1 -1,-1 -3,-1l-9 0 0 10z"/>
    <path id="_9_8" class="fil9" d="M910 334c-3,0 -7,-1 -10,-2 -3,-2 -6,-4 -7,-7 -2,-2 -3,-5 -3,-10 0,-2 0,-4 0,-6 0,-1 0,-3 0,-5 0,-4 1,-8 3,-10 1,-3 4,-5 7,-6 3,-2 7,-2 10,-2 5,0 8,0 12,2 2,1 4,3 6,6 2,2 3,6 3,10 0,2 0,4 0,5 0,2 0,4 0,6 0,5 -1,8 -3,10 -2,3 -4,5 -6,7 -4,1 -7,2 -12,2zm0 -10c3,0 5,0 6,-2 2,-1 3,-4 3,-7 0,-2 0,-4 0,-6 0,-1 0,-3 0,-5 0,-2 -1,-4 -1,-5 -1,-1 -2,-3 -3,-3 -2,-1 -3,-1 -5,-1 -1,0 -2,0 -3,1 -1,0 -2,2 -3,3 -1,1 -1,3 -1,5 -1,2 -1,4 -1,5 0,2 0,4 1,6 0,3 1,6 2,7 2,2 4,2 5,2z"/>
    <path id="_10_9" class="fil9" d="M954 333c0,0 -1,0 -1,0 0,-1 0,-1 0,-2l0 -35 -13 0c-1,0 -1,0 -1,0 0,0 0,-1 0,-1l0 -7c0,0 0,-1 0,-1 0,-1 0,-1 1,-1l36 0c1,0 1,0 1,1 1,0 1,1 1,1l0 7c0,0 0,1 -1,1 0,0 0,0 -1,0l-12 0 0 35c0,1 0,1 0,2 0,0 -1,0 -1,0l-9 0z"/>
   </g>
  </g>
 </g>
</svg>
