<?xml version="1.0" standalone="no"?>
<!DOCTYPE svg PUBLIC "-//W3C//DTD SVG 20010904//EN"
 "http://www.w3.org/TR/2001/REC-SVG-20010904/DTD/svg10.dtd">
<svg version="1.0" xmlns="http://www.w3.org/2000/svg"
 width="1080.000000pt" height="1080.000000pt" viewBox="0 0 1080.000000 1080.000000"
 preserveAspectRatio="xMidYMid meet">

<g transform="translate(0.000000,1080.000000) scale(0.100000,-0.100000)"
fill="#000000" stroke="none">
<path d="M5032 9617 c-78 -205 -153 -410 -166 -457 -95 -332 -92 -724 8 -1055
36 -119 65 -192 156 -385 45 -96 97 -206 115 -245 30 -65 124 -266 215 -460
21 -44 56 -118 77 -165 22 -47 90 -191 150 -320 61 -129 262 -559 448 -955
185 -396 387 -826 448 -955 60 -129 126 -271 147 -315 20 -44 105 -224 187
-400 83 -176 201 -428 263 -560 171 -365 552 -1178 647 -1380 151 -322 184
-426 185 -585 1 -130 -20 -170 -87 -170 -42 0 -56 12 -114 99 -113 168 -151
244 -481 946 -20 44 -112 238 -203 431 -91 192 -186 393 -210 445 -34 71 -949
2013 -1232 2614 -24 50 -80 169 -125 265 -45 96 -102 216 -125 265 -24 50
-160 338 -302 640 -422 893 -566 1195 -572 1195 -3 0 -68 -163 -145 -363 -199
-518 -235 -684 -223 -1017 10 -296 60 -485 214 -815 81 -173 347 -741 418
-892 30 -62 56 -121 60 -132 4 -12 -62 -198 -191 -533 -108 -282 -294 -769
-414 -1083 -566 -1480 -576 -1506 -705 -1710 -156 -248 -368 -459 -565 -561
-49 -26 -65 -29 -145 -29 -113 0 -174 26 -257 110 -166 168 -208 421 -122 751
28 108 82 250 629 1669 202 523 382 993 401 1046 64 179 77 360 39 540 -14 66
-51 177 -65 192 -8 9 -6 12 -312 -788 -116 -302 -306 -800 -423 -1105 -117
-305 -281 -735 -365 -955 -167 -440 -211 -546 -277 -679 -174 -348 -411 -611
-683 -759 -107 -59 -259 -105 -390 -117 -119 -12 -140 -21 -140 -62 0 -17 77
-18 1995 -18 1918 0 1995 1 1995 18 0 43 -20 50 -160 61 -204 15 -342 53 -452
124 -256 164 -332 480 -212 877 29 93 130 360 729 1910 86 223 182 471 213
553 31 81 59 147 62 147 3 0 37 -66 75 -147 38 -82 90 -193 116 -248 217 -463
861 -1838 894 -1910 18 -38 71 -152 118 -253 133 -282 167 -391 170 -542 2
-150 -39 -265 -126 -348 -105 -98 -240 -145 -467 -163 -74 -6 -138 -14 -142
-17 -4 -4 -10 -19 -13 -35 l-7 -27 2206 0 2206 0 0 23 c0 38 -12 44 -111 56
-226 26 -389 129 -552 349 -135 182 -193 290 -463 868 -97 209 -193 415 -214
459 -21 44 -85 181 -143 305 -57 124 -189 405 -292 625 -200 428 -206 441
-313 670 -38 83 -154 330 -257 550 -103 220 -282 603 -397 850 -268 573 -253
540 -468 1000 -100 215 -230 491 -287 615 -58 124 -123 263 -145 310 -22 47
-53 112 -68 145 -15 33 -46 98 -68 145 -21 47 -118 254 -215 460 -96 206 -279
598 -407 870 -127 272 -272 584 -323 693 -51 108 -94 197 -98 197 -3 0 -69
-168 -147 -373z"/>
</g>
</svg>
