<?xml version="1.0" encoding="UTF-8"?>
<!DOCTYPE svg PUBLIC "-//W3C//DTD SVG 1.1//EN" "http://www.w3.org/Graphics/SVG/1.1/DTD/svg11.dtd">
<!-- Creator: CorelDRAW X7 -->
<svg xmlns="http://www.w3.org/2000/svg" xml:space="preserve" width="261.4px" height="23px" version="1.1" style="shape-rendering:geometricPrecision; text-rendering:geometricPrecision; image-rendering:optimizeQuality; fill-rule:evenodd; clip-rule:evenodd"
viewBox="0 0 1070 330"
 xmlns:xlink="http://www.w3.org/1999/xlink">
 <defs>
  <style type="text/css">
   <![CDATA[
    .fil0 {fill:none}
    .fil2 {fill:#FF4C60;fill-rule:nonzero}
    .fil1 {fill:white;fill-rule:nonzero}
   ]]>
  </style>
 </defs>
 <g id="Layer_x0020_1">
  <metadata id="CorelCorpID_0Corel-Layer"/>
  <rect class="fil0" x="-922" y="-38" width="1070" height="33"/>
  <path class="fil1" d="M-804 274c-14,0 -26,-2 -37,-8 -11,-5 -20,-12 -26,-21 -6,-9 -10,-19 -10,-31 0,-18 8,-32 23,-43 15,-10 34,-18 59,-22l45 -7 0 -2c0,-8 -2,-14 -4,-18 -3,-4 -8,-6 -16,-6 -5,0 -9,1 -12,3 -4,2 -7,5 -10,9 -2,3 -5,4 -10,4l-53 0c-3,0 -5,-1 -7,-2 -1,-2 -2,-4 -2,-6 1,-5 3,-10 6,-17 4,-6 9,-12 17,-18 7,-6 17,-11 29,-15 12,-4 26,-6 43,-6 17,0 32,2 44,6 12,4 22,9 30,16 8,7 14,15 17,25 4,10 6,21 6,33l0 112c0,3 -1,6 -3,8 -2,1 -4,2 -7,2l-55 0c-3,0 -5,-1 -7,-2 -2,-2 -3,-5 -3,-8l0 -12c-4,5 -8,10 -14,14 -5,3 -11,6 -19,9 -7,2 -15,3 -24,3zm22 -50c7,0 12,-1 17,-4 5,-2 9,-7 11,-12 3,-6 4,-13 4,-21l0 -3 -27 6c-10,1 -16,4 -20,7 -4,4 -6,7 -6,12 0,3 1,5 3,8 2,2 4,4 7,5 4,2 7,2 11,2z"/>
  <path id="1" class="fil1" d="M-624 270c-3,0 -5,-1 -7,-2 -2,-2 -3,-5 -3,-8l0 -178c0,-3 1,-5 3,-7 2,-2 4,-3 7,-3l56 0c3,0 5,1 7,3 2,2 3,4 3,7l0 178c0,3 -1,6 -3,8 -2,1 -4,2 -7,2l-56 0zm0 -223c-2,0 -5,-1 -7,-2 -1,-2 -2,-5 -2,-7l0 -41c0,-2 1,-5 2,-7 2,-2 5,-3 7,-3l55 0c3,0 6,1 8,3 2,2 3,5 3,7l0 41c0,2 -1,5 -3,7 -2,1 -5,2 -8,2l-55 0z"/>
  <path id="2" class="fil1" d="M-443 274c-12,0 -23,-2 -32,-5 -10,-4 -18,-9 -25,-17 -8,-7 -13,-16 -17,-27 -4,-12 -7,-25 -7,-40 -1,-5 -1,-10 -1,-14 0,-4 0,-9 1,-14 0,-14 2,-27 6,-38 5,-11 10,-20 17,-28 7,-7 16,-13 26,-17 9,-4 20,-6 32,-6 11,0 21,2 30,6 9,4 17,8 23,15l0 -79c0,-3 1,-5 3,-7 2,-2 4,-3 7,-3l58 0c3,0 5,1 7,3 2,2 3,4 3,7l0 250c0,3 -1,6 -3,8 -2,1 -4,2 -7,2l-53 0c-3,0 -6,-1 -8,-2 -2,-2 -3,-5 -3,-8l0 -10c-6,7 -13,13 -23,18 -9,4 -21,6 -34,6zm26 -59c6,0 12,-2 15,-4 4,-3 7,-7 9,-12 2,-4 2,-9 3,-15 0,-5 1,-10 1,-14 0,-5 -1,-9 -1,-14 -1,-6 -2,-10 -3,-14 -2,-5 -5,-8 -9,-10 -4,-3 -9,-4 -15,-4 -7,0 -12,1 -16,4 -3,3 -6,6 -8,11 -1,5 -2,10 -3,16 -1,8 -1,16 0,24 1,7 2,12 3,17 2,4 5,8 8,11 4,2 9,4 16,4z"/>
  <path id="3" class="fil1" d="M-262 270c-3,0 -5,-1 -7,-2 -2,-2 -3,-5 -3,-8l0 -178c0,-3 1,-5 3,-7 2,-2 4,-3 7,-3l56 0c3,0 5,1 7,3 2,2 4,4 4,7l0 178c0,3 -2,6 -4,8 -2,1 -4,2 -7,2l-56 0zm1 -223c-3,0 -6,-1 -7,-2 -2,-2 -3,-5 -3,-7l0 -41c0,-2 1,-5 3,-7 1,-2 4,-3 7,-3l54 0c3,0 6,1 8,3 2,2 3,5 3,7l0 41c0,2 -1,5 -3,7 -2,1 -5,2 -8,2l-54 0z"/>
  <path id="4" class="fil1" d="M-146 270c-3,0 -5,-1 -7,-2 -2,-2 -3,-5 -3,-8l0 -250c0,-3 1,-5 3,-7 2,-2 4,-3 7,-3l56 0c3,0 5,1 7,3 2,2 3,4 3,7l0 250c0,3 -1,6 -3,8 -2,1 -4,2 -7,2l-56 0z"/>
  <path id="5" class="fil1" d="M21 274c-14,0 -26,-2 -37,-8 -11,-5 -20,-12 -26,-21 -6,-9 -9,-19 -9,-31 0,-18 7,-32 22,-43 15,-10 35,-18 60,-22l44 -7 0 -2c0,-8 -2,-14 -4,-18 -3,-4 -8,-6 -15,-6 -6,0 -10,1 -13,3 -4,2 -7,5 -9,9 -3,3 -6,4 -10,4l-54 0c-3,0 -5,-1 -6,-2 -2,-2 -3,-4 -2,-6 0,-5 2,-10 5,-17 4,-6 9,-12 17,-18 7,-6 17,-11 29,-15 12,-4 26,-6 43,-6 17,0 32,2 44,6 12,4 22,9 30,16 8,7 14,15 18,25 3,10 5,21 5,33l0 112c0,3 -1,6 -3,8 -1,1 -4,2 -7,2l-55 0c-3,0 -5,-1 -7,-2 -2,-2 -3,-5 -3,-8l0 -12c-4,5 -8,10 -13,14 -6,3 -12,6 -19,9 -8,2 -16,3 -25,3zm22 -50c7,0 12,-1 17,-4 5,-2 9,-7 12,-12 2,-6 4,-13 4,-21l0 -3 -28 6c-9,1 -16,4 -20,7 -4,4 -5,7 -5,12 0,3 0,5 2,8 2,2 4,4 8,5 3,2 6,2 10,2z"/>
  <path id="6" class="fil1" d="M201 270c-3,0 -5,-1 -7,-2 -2,-2 -3,-5 -3,-8l0 -178c0,-3 1,-5 3,-7 2,-2 4,-3 7,-3l55 0c3,0 5,1 7,3 2,2 3,4 3,7l0 14c8,-7 16,-13 26,-17 10,-5 21,-7 32,-7l18 0c2,0 5,1 7,3 2,2 3,4 3,7l0 49c0,3 -1,5 -3,7 -2,2 -5,3 -7,3l-43 0c-9,0 -16,3 -21,7 -5,5 -7,12 -7,21l0 91c0,3 -1,6 -3,8 -2,1 -4,2 -7,2l-60 0z"/>
  <path id="7" class="fil1" d="M414 343c-2,0 -4,-1 -6,-2 -1,-2 -2,-4 -2,-6 0,-1 0,-1 0,-2 0,-1 0,-2 1,-3l30 -72 -73 -173c-1,-2 -1,-3 -1,-4 0,-2 1,-4 3,-6 2,-2 4,-3 6,-3l54 0c4,0 6,1 8,3 2,2 3,4 4,6l37 99 38 -99c1,-2 3,-4 5,-6 1,-2 4,-3 8,-3l53 0c2,0 4,1 6,3 2,1 2,3 2,5 0,2 0,3 0,5l-108 249c-1,2 -2,4 -4,6 -2,2 -5,3 -8,3l-53 0z"/>
  <path id="8" class="fil1" d="M664 274c-14,0 -27,-2 -38,-8 -11,-5 -20,-12 -26,-21 -6,-9 -9,-19 -9,-31 0,-18 7,-32 22,-43 15,-10 35,-18 60,-22l44 -7 0 -2c0,-8 -1,-14 -4,-18 -2,-4 -7,-6 -15,-6 -5,0 -10,1 -13,3 -3,2 -6,5 -9,9 -3,3 -6,4 -10,4l-54 0c-2,0 -4,-1 -6,-2 -2,-2 -2,-4 -2,-6 0,-5 2,-10 6,-17 3,-6 9,-12 16,-18 8,-6 17,-11 29,-15 12,-4 27,-6 43,-6 17,0 32,2 44,6 12,4 22,9 30,16 8,7 14,15 18,25 4,10 6,21 6,33l0 112c0,3 -1,6 -3,8 -2,1 -5,2 -7,2l-56 0c-2,0 -5,-1 -7,-2 -2,-2 -3,-5 -3,-8l0 -12c-3,5 -8,10 -13,14 -6,3 -12,6 -19,9 -7,2 -15,3 -24,3zm22 -50c6,0 12,-1 17,-4 4,-2 8,-7 11,-12 2,-6 4,-13 4,-21l0 -3 -28 6c-9,1 -16,4 -20,7 -3,4 -5,7 -5,12 0,3 1,5 2,8 2,2 5,4 8,5 3,2 7,2 11,2z"/>
  <path id="9" class="fil1" d="M843 270c-3,0 -5,-1 -7,-2 -2,-2 -3,-5 -3,-8l0 -178c0,-3 1,-5 3,-7 2,-2 4,-3 7,-3l55 0c3,0 6,1 7,3 2,2 3,4 3,7l0 14c7,-8 16,-14 27,-20 11,-5 23,-8 37,-8 14,0 26,4 37,10 12,6 21,16 27,28 7,13 11,29 11,49l0 105c0,3 -1,6 -3,8 -2,1 -5,2 -8,2l-60 0c-3,0 -5,-1 -7,-2 -2,-2 -3,-5 -3,-8l0 -103c0,-9 -2,-16 -7,-22 -4,-5 -11,-7 -19,-7 -8,0 -15,2 -20,7 -5,6 -7,13 -7,22l0 103c0,3 -1,6 -3,8 -2,1 -4,2 -7,2l-60 0z"/>
  <path id="10" class="fil1" d="M1194 270c-17,0 -32,-2 -45,-7 -13,-5 -24,-14 -31,-25 -7,-12 -11,-27 -11,-46l0 -61 -30 0c-3,0 -5,-1 -7,-3 -2,-2 -3,-5 -3,-7l0 -39c0,-3 1,-5 3,-7 2,-2 4,-3 7,-3l30 0 0 -62c0,-3 1,-5 3,-7 2,-2 4,-3 7,-3l55 0c3,0 6,1 8,3 1,2 2,4 2,7l0 62 48 0c3,0 6,1 7,3 2,2 3,4 3,7l0 39c0,2 -1,5 -3,7 -1,2 -4,3 -7,3l-48 0 0 54c0,8 2,14 5,18 3,4 8,6 14,6l32 0c3,0 6,1 8,3 1,2 2,4 2,7l0 41c0,3 -1,6 -2,8 -2,1 -5,2 -8,2l-39 0z"/>
  <path id="11" class="fil1" d="M1372 274c-22,0 -41,-3 -56,-10 -16,-6 -28,-16 -36,-29 -8,-13 -12,-28 -13,-46 -1,-6 -1,-11 -1,-18 0,-6 0,-12 1,-17 1,-19 5,-34 14,-47 9,-12 21,-22 36,-29 16,-6 34,-10 55,-10 22,0 40,4 55,10 16,7 28,17 36,29 9,13 14,28 15,47 0,5 1,11 1,17 0,7 -1,12 -1,18 -1,18 -6,33 -14,46 -8,13 -20,23 -35,29 -16,7 -34,10 -57,10zm0 -54c10,0 16,-2 20,-8 3,-6 5,-14 6,-25 0,-4 0,-9 0,-16 0,-6 0,-12 0,-15 -1,-11 -3,-20 -6,-25 -4,-6 -10,-9 -20,-9 -9,0 -15,3 -19,9 -3,5 -6,14 -6,25 -1,3 -1,9 -1,15 0,7 0,12 1,16 0,11 3,19 6,25 4,6 10,8 19,8z"/>
  <path id="12" class="fil2" d="M1519 270c-3,0 -5,-1 -7,-2 -2,-2 -3,-5 -3,-8l0 -57c0,-2 1,-5 3,-7 2,-2 4,-3 7,-3l57 0c3,0 5,1 7,3 2,2 3,5 3,7l0 57c0,3 -1,6 -3,8 -2,1 -4,2 -7,2l-57 0z"/>
  <path id="13" class="fil2" d="M1634 270c-3,0 -5,-1 -7,-2 -2,-2 -3,-5 -3,-8l0 -178c0,-3 1,-5 3,-7 2,-2 4,-3 7,-3l56 0c3,0 6,1 8,3 2,2 3,4 3,7l0 178c0,3 -1,6 -3,8 -2,1 -5,2 -8,2l-56 0zm1 -223c-3,0 -5,-1 -7,-2 -2,-2 -3,-5 -3,-7l0 -41c0,-2 1,-5 3,-7 2,-2 4,-3 7,-3l55 0c3,0 5,1 7,3 2,2 3,5 3,7l0 41c0,2 -1,5 -3,7 -2,1 -4,2 -7,2l-55 0z"/>
  <path id="14" class="fil2" d="M1815 274c-12,0 -22,-2 -32,-5 -10,-4 -18,-9 -25,-17 -7,-7 -13,-16 -17,-27 -4,-12 -6,-25 -7,-40 0,-5 0,-10 0,-14 0,-4 0,-9 0,-14 0,-14 3,-27 7,-38 4,-11 9,-20 17,-28 7,-7 15,-13 25,-17 10,-4 20,-6 32,-6 12,0 22,2 31,6 8,4 16,8 22,15l0 -79c0,-3 1,-5 3,-7 2,-2 4,-3 7,-3l59 0c2,0 5,1 7,3 2,2 3,4 3,7l0 250c0,3 -1,6 -3,8 -2,1 -5,2 -7,2l-54 0c-3,0 -5,-1 -7,-2 -2,-2 -3,-5 -3,-8l0 -10c-6,7 -14,13 -23,18 -10,4 -21,6 -35,6zm26 -59c7,0 12,-2 16,-4 4,-3 7,-7 8,-12 2,-4 3,-9 3,-15 1,-5 1,-10 1,-14 0,-5 0,-9 -1,-14 0,-6 -1,-10 -3,-14 -2,-5 -5,-8 -9,-10 -4,-3 -9,-4 -15,-4 -6,0 -11,1 -15,4 -4,3 -7,6 -8,11 -2,5 -3,10 -4,16 0,8 0,16 0,24 1,7 2,12 4,17 1,4 4,8 8,11 4,2 9,4 15,4z"/>
 </g>
</svg>
