<?xml version="1.0" encoding="UTF-8"?>
<!DOCTYPE svg PUBLIC "-//W3C//DTD SVG 1.1//EN" "http://www.w3.org/Graphics/SVG/1.1/DTD/svg11.dtd">
<!-- Creator: CorelDRAW X8 -->
<svg xmlns="http://www.w3.org/2000/svg" xml:space="preserve" width="261px" height="63px" version="1.1" style="shape-rendering:geometricPrecision; text-rendering:geometricPrecision; image-rendering:optimizeQuality; fill-rule:evenodd; clip-rule:evenodd"
viewBox="150 0 1070 330"
 xmlns:xlink="http://www.w3.org/1999/xlink">
 <defs>
  <style type="text/css">
   <![CDATA[
    .fil1 {fill:#FEFEFE;fill-rule:nonzero}
    .fil0 {fill:#FF4C60;fill-rule:nonzero}
   ]]>
  </style>
 </defs>
 <g id="Layer_x0020_1">
  <metadata id="CorelCorpID_0Corel-Layer"/>
  <g id="_660358680">
   <polygon class="fil0" points="99,198 46,198 54,177 91,177 "/>
   <g>
    <path class="fil1" d="M25 216c-1,0 -1,0 -2,-1 -1,-1 -1,-1 -1,-2 0,-1 0,-1 0,-1l34 -94c1,-1 1,-2 2,-3 1,-1 2,-1 4,-1l22 0c1,0 2,0 3,1 1,1 2,2 2,3l34 94c0,0 0,0 0,1 0,1 0,1 0,2 -1,1 -2,1 -3,1l-18 0c-1,0 -2,-1 -3,-1 -1,-1 -1,-2 -1,-2l-25 -74 -25 74c0,0 -1,1 -2,2 0,0 -1,1 -3,1l-18 0z"/>
    <path class="fil1" d="M138 216c-1,0 -2,-1 -3,-1 0,-1 -1,-2 -1,-3l0 -94c0,-1 1,-2 1,-3 1,-1 2,-1 3,-1l19 0c1,0 2,0 3,1 1,1 1,2 1,3l0 94c0,1 0,2 -1,3 -1,0 -2,1 -3,1l-19 0z"/>
    <path id="1" class="fil1" d="M179 216c-1,0 -2,-1 -3,-1 -1,-1 -1,-2 -1,-3l0 -94c0,-1 0,-2 1,-3 1,-1 2,-1 3,-1l37 0c10,0 18,2 25,5 6,3 12,7 15,13 4,6 6,13 6,22 0,4 0,8 0,11 0,3 0,7 0,11 0,9 -2,17 -6,22 -3,6 -8,11 -15,14 -6,2 -14,4 -24,4l-38 0zm22 -21l15 0c5,0 8,-1 11,-2 3,-1 5,-3 6,-6 2,-3 2,-7 2,-11 1,-3 1,-6 1,-8 0,-2 0,-4 0,-6 0,-3 0,-5 -1,-8 0,-6 -2,-11 -5,-14 -3,-3 -8,-5 -14,-5l-15 0 0 60z"/>
    <path id="2" class="fil1" d="M277 216c-1,0 -2,-1 -3,-1 -1,-1 -1,-2 -1,-3l0 -94c0,-1 0,-2 1,-3 1,-1 2,-1 3,-1l19 0c1,0 2,0 3,1 0,1 1,2 1,3l0 94c0,1 -1,2 -1,3 -1,0 -2,1 -3,1l-19 0z"/>
    <path id="3" class="fil1" d="M317 216c-1,0 -1,-1 -2,-1 -1,-1 -1,-2 -1,-3l0 -94c0,-1 0,-2 1,-3 1,-1 1,-1 2,-1l20 0c1,0 2,0 2,1 1,1 1,2 1,3l0 76 44 0c1,0 2,0 3,1 1,1 1,2 1,3l0 14c0,1 0,2 -1,3 -1,0 -2,1 -3,1l-67 0z"/>
    <path id="4" class="fil1" d="M406 216c0,0 -1,0 -2,-1 0,-1 -1,-1 -1,-2 0,-1 0,-1 0,-1l35 -94c0,-1 1,-2 1,-3 1,0 3,-1 4,-1l22 0c1,0 3,1 4,1 1,1 1,2 1,3l34 94c1,0 1,0 1,1 0,1 -1,1 -1,2 -1,1 -2,1 -2,1l-18 0c-2,0 -3,-1 -4,-1 0,-1 -1,-2 -1,-2l-6 -15 -38 0 -6 15c0,0 -1,1 -1,2 -1,0 -2,1 -4,1l-18 0zm35 -39l27 0 -14 -38 -13 38z"/>
    <path id="5" class="fil1" d="M514 216c-1,0 -2,-1 -3,-1 -1,-1 -1,-2 -1,-3l0 -94c0,-1 0,-2 1,-3 1,-1 2,-1 3,-1l39 0c13,0 23,3 30,9 7,6 11,14 11,24 0,7 -2,13 -5,18 -4,4 -8,8 -13,10l19 36c1,1 1,1 1,2 0,1 0,1 -1,2 -1,1 -1,1 -2,1l-19 0c-2,0 -4,-1 -5,-2 0,0 -1,-1 -1,-2l-17 -32 -15 0 0 32c0,1 0,2 -1,3 -1,0 -2,1 -3,1l-18 0zm22 -57l17 0c4,0 8,-1 10,-3 2,-2 4,-5 4,-9 0,-4 -2,-7 -4,-9 -2,-3 -5,-4 -10,-4l-17 0 0 25z"/>
    <path id="6" class="fil1" d="M630 216c-1,0 -2,-1 -2,-1 -1,-1 -2,-2 -2,-3l0 -31 -33 -62c0,-1 0,-1 -1,-1 0,0 0,-1 0,-1 0,-1 1,-1 1,-2 1,-1 2,-1 3,-1l18 0c1,0 2,1 3,1 1,1 2,2 2,2l21 38 20 -38c1,0 1,-1 2,-2 1,0 2,-1 4,-1l18 0c1,0 1,0 2,1 1,1 1,1 1,2 0,0 0,1 0,1 0,0 0,0 0,1l-34 62 0 31c0,1 -1,2 -1,3 -1,0 -2,1 -3,1l-19 0z"/>
    <path id="7" class="fil1" d="M676 216c-1,0 -2,0 -2,-1 -1,-1 -1,-1 -1,-2 0,-1 0,-1 0,-1l34 -94c0,-1 1,-2 2,-3 1,0 2,-1 4,-1l21 0c2,0 3,1 4,1 1,1 1,2 2,3l34 94c0,0 0,0 0,1 0,1 0,1 -1,2 -1,1 -1,1 -2,1l-18 0c-1,0 -3,-1 -3,-1 -1,-1 -1,-2 -2,-2l-5 -15 -39 0 -6 15c0,0 0,1 -1,2 -1,0 -2,1 -3,1l-18 0zm34 -39l27 0 -14 -38 -13 38z"/>
    <path id="8" class="fil1" d="M783 216c-1,0 -2,-1 -3,-1 0,-1 -1,-2 -1,-3l0 -94c0,-1 1,-2 1,-3 1,-1 2,-1 3,-1l15 0c2,0 3,1 4,1 1,1 1,2 1,2l36 56 0 -55c0,-1 0,-2 1,-3 0,-1 1,-1 2,-1l18 0c1,0 2,0 2,1 1,1 1,2 1,3l0 94c0,1 0,2 -1,3 0,0 -1,1 -2,1l-16 0c-1,0 -2,-1 -3,-1 -1,-1 -1,-2 -2,-2l-35 -54 0 53c0,1 0,2 -1,3 -1,0 -2,1 -3,1l-17 0z"/>
    <path id="9" class="fil1" d="M904 216c-1,0 -2,-1 -3,-1 -1,-1 -1,-2 -1,-3l0 -75 -26 0c-1,0 -2,0 -2,-1 -1,-1 -1,-2 -1,-3l0 -15c0,-1 0,-2 1,-3 0,-1 1,-1 2,-1l78 0c1,0 2,0 3,1 1,1 1,2 1,3l0 15c0,1 0,2 -1,3 -1,1 -2,1 -3,1l-26 0 0 75c0,1 0,2 -1,3 0,0 -1,1 -2,1l-19 0z"/>
    <path id="10" class="fil1" d="M1003 217c-9,0 -17,-1 -23,-4 -7,-3 -12,-7 -16,-13 -3,-6 -5,-13 -6,-22 0,-4 0,-9 0,-13 0,-4 0,-8 0,-12 1,-9 3,-16 6,-22 4,-6 9,-11 16,-14 7,-3 14,-4 23,-4 9,0 16,1 23,4 7,3 12,8 16,14 3,6 5,13 6,22 0,4 0,8 0,12 0,4 0,9 0,13 -1,9 -3,16 -6,22 -4,6 -9,10 -16,13 -6,3 -14,4 -23,4zm0 -21c5,0 9,-1 13,-4 3,-3 4,-8 5,-15 0,-4 0,-8 0,-12 0,-4 0,-8 0,-12 -1,-4 -1,-8 -3,-11 -1,-3 -3,-5 -6,-6 -3,-2 -6,-2 -9,-2 -3,0 -6,0 -9,2 -3,1 -5,3 -6,6 -2,3 -3,7 -3,11 0,4 0,8 0,12 0,4 0,8 0,12 1,7 2,12 6,15 3,3 7,4 12,4z"/>
   </g>
  </g>
 </g>
</svg>
